<svg xmlns="http://www.w3.org/2000/svg" viewBox="0 0 191.04 303.7"><defs><style>.cls-1{fill:#363537;}.cls-2,.cls-3{fill:none;stroke-miterlimit:10;stroke-width:3px;}.cls-2{stroke:#b9272c;}.cls-3{stroke:#363537;}</style></defs><g id="Layer_2" data-name="Layer 2"><g id="PT"><polygon class="cls-1" points="95.5 220.36 124.16 163.06 66.85 163.06 95.5 220.36"/><polygon class="cls-1" points="57.3 163.06 85.95 105.76 28.65 105.76 57.3 163.06"/><polygon class="cls-1" points="133.71 163.06 162.36 105.76 105.05 105.76 133.71 163.06"/><line class="cls-2" x1="191.04" y1="86.66" y2="86.66"/><line class="cls-2" y1="67.55" x2="191.01" y2="67.55"/><polygon class="cls-1" points="131.97 66.05 165 66.05 165 0 131.97 66.05"/><polygon class="cls-1" points="59.03 66.06 26.01 66.06 26.01 0 59.03 66.06"/><polyline class="cls-3" points="123.88 197.36 104.78 235.56 95.23 216.46"/><polyline class="cls-3" points="67.12 197.36 86.22 235.56 95.77 216.46"/><path class="cls-1" d="M22.08,278.71l11.27-12.39,2-1.27H22.08v-4H40.62v4L29.27,277.53l-2,1.18H40.62v4H22.08Z"/><path class="cls-1" d="M43.88,261H59.72v4H49.08v4.72h9.66v4H49.08v4.91H59.9v4h-16Z"/><path class="cls-1" d="M70.39,271.42l-2.1-3.22h-.18l.56,3.25v11.14H63.76V261h3.76l10.14,11.42,2,3.12h.21l-.57-3.15V261.16h4.92v21.58H80.47Z"/><path class="cls-1" d="M88.79,261.53c1.06-.16,2.23-.29,3.52-.38s2.57-.14,3.86-.14a31.5,31.5,0,0,1,4,.26,11.53,11.53,0,0,1,3.6,1,7,7,0,0,1,2.61,2.17,6.11,6.11,0,0,1,1,3.69,6.41,6.41,0,0,1-.88,3.45,7,7,0,0,1-2.33,2.31,11,11,0,0,1-3.32,1.3,18,18,0,0,1-3.83.41H95.52l-.9-.05-.63-.06v7.22h-5.2Zm7.73,2.91c-.49,0-1,0-1.42,0a6.92,6.92,0,0,0-1.11.13v6.46l.46.06.67,0,.65,0h.47a17.45,17.45,0,0,0,2-.12,5.55,5.55,0,0,0,1.81-.53,3.59,3.59,0,0,0,1.28-1.1,3.2,3.2,0,0,0,.49-1.88,2.55,2.55,0,0,0-.46-1.6,3,3,0,0,0-1.21-1,5.78,5.78,0,0,0-1.72-.46A14,14,0,0,0,96.52,264.44Z"/><path class="cls-1" d="M127.5,282.74H110.57V261h5.2v17.7H127.5Z"/><path class="cls-1" d="M130.13,261H146v4H135.33v4.72H145v4h-9.65v4.91h10.81v4h-16Z"/><path class="cls-1" d="M168.93,265.05h-7.79v17.69h-5.2V265.05h-7.8v-4h20.79Z"/><path class="cls-1" d="M51.1,303.2a2.94,2.94,0,0,1-1.15.39,8.81,8.81,0,0,1-1.48.11,5.92,5.92,0,0,1-1.75-.25,4.07,4.07,0,0,1-1.46-.76,3.57,3.57,0,0,1-1-1.31,4.5,4.5,0,0,1-.37-1.88,4.08,4.08,0,0,1,.42-1.93,3.7,3.7,0,0,1,1.07-1.3,4.21,4.21,0,0,1,1.48-.74,6.17,6.17,0,0,1,1.63-.23,11.89,11.89,0,0,1,1.49.08,5.25,5.25,0,0,1,1,.21l-.3,1a6.13,6.13,0,0,0-2-.26,4.4,4.4,0,0,0-1.2.16,3,3,0,0,0-1,.55,2.73,2.73,0,0,0-.74,1,3.67,3.67,0,0,0-.27,1.49,3.43,3.43,0,0,0,.26,1.38,2.7,2.7,0,0,0,.72,1,3,3,0,0,0,1.08.6,4.32,4.32,0,0,0,1.37.2,5.73,5.73,0,0,0,1.17-.1,3.77,3.77,0,0,0,.84-.27Z"/><path class="cls-1" d="M57.53,301.51H53.76l-1,2.19H51.38l3.95-8.4h.72l4,8.4H58.56Zm-3.36-1h3L56,298.11l-.37-1.29h0l-.37,1.31Z"/><path class="cls-1" d="M61.35,295.49l.63-.08c.24,0,.47-.05.71-.06l.72,0h.67a7,7,0,0,1,1.32.12,3.76,3.76,0,0,1,1.13.39,2.32,2.32,0,0,1,.78.71,1.86,1.86,0,0,1,.3,1.08,2.19,2.19,0,0,1-.18.9,2.23,2.23,0,0,1-.5.71,2.81,2.81,0,0,1-.74.52,4.15,4.15,0,0,1-.94.31l.71.42,2.58,3.24H67l-2.85-3.5L62.72,300v3.66H61.35Zm2.77.76h-.78l-.36,0a1.3,1.3,0,0,0-.26,0v2.9h1.13a4.39,4.39,0,0,0,.91-.09,2.52,2.52,0,0,0,.73-.27,1.5,1.5,0,0,0,.48-.49,1.39,1.39,0,0,0,.18-.73,1.18,1.18,0,0,0-.52-1A2.57,2.57,0,0,0,64.12,296.25Z"/><path class="cls-1" d="M70.31,295.3h5.81v1.06H71.69v2.53h4v1.05h-4v2.7h4.5v1.06H70.31Z"/><path class="cls-1" d="M84.29,300.41,80.8,295.3h1.61l2.4,3.56.23.77h0l.26-.79,2.29-3.54h1.46l-3.42,5.1v3.3H84.29Z"/><path class="cls-1" d="M89.41,299.5a5.19,5.19,0,0,1,.29-1.78,3.64,3.64,0,0,1,.86-1.32,3.78,3.78,0,0,1,1.36-.82,5.37,5.37,0,0,1,1.81-.28,5.31,5.31,0,0,1,1.91.31,3.84,3.84,0,0,1,1.36.85,3.53,3.53,0,0,1,.81,1.33,5.43,5.43,0,0,1,.26,1.71,5.23,5.23,0,0,1-.29,1.78,3.52,3.52,0,0,1-.86,1.31,3.79,3.79,0,0,1-1.37.83,5.66,5.66,0,0,1-1.82.28,5.22,5.22,0,0,1-1.9-.31,3.71,3.71,0,0,1-1.35-.85,3.51,3.51,0,0,1-.8-1.33A5.15,5.15,0,0,1,89.41,299.5Zm1.45,0a4.45,4.45,0,0,0,.18,1.28,2.91,2.91,0,0,0,.52,1,2.42,2.42,0,0,0,.89.72,3,3,0,0,0,1.28.26,2.82,2.82,0,0,0,2.11-.8,3.45,3.45,0,0,0,.78-2.5,4.68,4.68,0,0,0-.17-1.26,3.06,3.06,0,0,0-.53-1.05,2.53,2.53,0,0,0-.89-.72,2.87,2.87,0,0,0-1.3-.27,2.77,2.77,0,0,0-2.09.81A3.47,3.47,0,0,0,90.86,299.5Z"/><path class="cls-1" d="M106.1,295.3h1.3v5.41a3.15,3.15,0,0,1-.26,1.33,2.54,2.54,0,0,1-.72.93,3,3,0,0,1-1.11.55,5.15,5.15,0,0,1-1.42.18,4.85,4.85,0,0,1-2.82-.69,2.37,2.37,0,0,1-1-2.06V295.3h1.37v5.2a2,2,0,0,0,.61,1.68,2.89,2.89,0,0,0,1.81.48,2.39,2.39,0,0,0,1.69-.52,2.25,2.25,0,0,0,.53-1.67Z"/><path class="cls-1" d="M109.84,295.49l.64-.08c.23,0,.47-.05.7-.06l.72,0h.67a7.23,7.23,0,0,1,1.33.12,3.7,3.7,0,0,1,1.12.39,2.14,2.14,0,0,1,.78.71,1.86,1.86,0,0,1,.3,1.08,2.2,2.2,0,0,1-.67,1.61,2.71,2.71,0,0,1-.75.52,4,4,0,0,1-.94.31l.71.42L117,303.7h-1.58l-2.85-3.49-1.39-.17v3.66h-1.37Zm2.77.76h-.78l-.36,0-.26,0v2.9h1.13a4.32,4.32,0,0,0,.91-.09,2.52,2.52,0,0,0,.73-.27,1.53,1.53,0,0,0,.49-.49,1.49,1.49,0,0,0,.17-.73,1.18,1.18,0,0,0-.52-1A2.57,2.57,0,0,0,112.61,296.25Z"/><path class="cls-1" d="M122.8,295.49a10.9,10.9,0,0,1,1.26-.15c.45,0,.89,0,1.33,0a10.06,10.06,0,0,1,1.43.11,4.54,4.54,0,0,1,1.31.39,2.55,2.55,0,0,1,1,.79,2,2,0,0,1,.38,1.29,2.31,2.31,0,0,1-.34,1.28,2.88,2.88,0,0,1-.91.86,4.33,4.33,0,0,1-1.31.48,7.53,7.53,0,0,1-1.52.16h-.61l-.35,0-.26,0v3.1H122.8Zm2.64.76h-.73a3.13,3.13,0,0,0-.54.06v3.18a.63.63,0,0,0,.23,0l.33,0h.57a7.77,7.77,0,0,0,1-.06,2.94,2.94,0,0,0,.87-.26,1.66,1.66,0,0,0,.64-.53,1.53,1.53,0,0,0,.24-.89,1.25,1.25,0,0,0-.24-.78,1.51,1.51,0,0,0-.6-.48,3.09,3.09,0,0,0-.83-.25A7.07,7.07,0,0,0,125.44,296.25Z"/><path class="cls-1" d="M131.23,295.3H137v1.06H132.6v2.53h4.05v1.05H132.6v2.7h4.51v1.06h-5.88Z"/><path class="cls-1" d="M146.15,296.36h-3.24v7.34h-1.37v-7.34H138.3V295.3h7.85Z"/></g></g></svg>